<mxfile host="app.diagrams.net" modified="2024-01-02T13:25:59.056Z" agent="Mozilla/5.0 (Windows NT 10.0; Win64; x64) AppleWebKit/537.36 (KHTML, like Gecko) Chrome/120.0.0.0 Safari/537.36" etag="1_rVTNWVp0CEvlFgIZ6P" version="22.1.15" type="google">
  <diagram name="Seite-1" id="UVd7dFZAjl2ylK42SIcp">
    <mxGraphModel grid="1" page="1" gridSize="10" guides="0" tooltips="1" connect="1" arrows="1" fold="1" pageScale="1" pageWidth="400" pageHeight="1169" math="0" shadow="0">
      <root>
        <mxCell id="0" />
        <mxCell id="1" parent="0" />
        <mxCell id="mhCpos3WRwanXN9Es1C8-1" value="Hochschulangehöriger" style="shape=umlActor;verticalLabelPosition=bottom;verticalAlign=top;html=1;outlineConnect=0;" vertex="1" parent="1">
          <mxGeometry x="20" y="-1070" width="70" height="120" as="geometry" />
        </mxCell>
        <mxCell id="mhCpos3WRwanXN9Es1C8-2" value="Dienstreisender" style="shape=umlActor;verticalLabelPosition=bottom;verticalAlign=top;html=1;" vertex="1" parent="1">
          <mxGeometry x="170" y="-1080" width="110" height="140" as="geometry" />
        </mxCell>
        <mxCell id="mhCpos3WRwanXN9Es1C8-3" value="Fuhrparkverwalter" style="shape=umlActor;verticalLabelPosition=bottom;verticalAlign=top;html=1;" vertex="1" parent="1">
          <mxGeometry x="150" y="-880" width="110" height="140" as="geometry" />
        </mxCell>
        <mxCell id="mhCpos3WRwanXN9Es1C8-4" value="" style="endArrow=block;endFill=0;endSize=12;html=1;rounded=0;" edge="1" parent="1" source="mhCpos3WRwanXN9Es1C8-2">
          <mxGeometry width="160" relative="1" as="geometry">
            <mxPoint x="105" y="-800" as="sourcePoint" />
            <mxPoint x="100" y="-990" as="targetPoint" />
          </mxGeometry>
        </mxCell>
        <mxCell id="mhCpos3WRwanXN9Es1C8-5" value="HSCOCAR SYSTEM" style="shape=umlFrame;whiteSpace=wrap;html=1;pointerEvents=0;width=70;height=30;" vertex="1" parent="1">
          <mxGeometry x="490" y="-1080" width="1110" height="1050" as="geometry" />
        </mxCell>
        <mxCell id="mhCpos3WRwanXN9Es1C8-6" value="Registrieren" style="ellipse;whiteSpace=wrap;html=1;" vertex="1" parent="1">
          <mxGeometry x="630" y="-1070" width="110" height="40" as="geometry" />
        </mxCell>
        <mxCell id="mhCpos3WRwanXN9Es1C8-7" value="Kostenstelle/n angeben" style="ellipse;whiteSpace=wrap;html=1;" vertex="1" parent="1">
          <mxGeometry x="630" y="-790" width="110" height="40" as="geometry" />
        </mxCell>
        <mxCell id="mhCpos3WRwanXN9Es1C8-8" value="Kostenstelle genehmigen&lt;br&gt;Extension Point: Genehmigunfsprozess" style="ellipse;whiteSpace=wrap;html=1;" vertex="1" parent="1">
          <mxGeometry x="630" y="-680" width="150" height="80" as="geometry" />
        </mxCell>
        <mxCell id="mhCpos3WRwanXN9Es1C8-9" value="An- und Abmelden" style="ellipse;whiteSpace=wrap;html=1;" vertex="1" parent="1">
          <mxGeometry x="630" y="-970" width="110" height="40" as="geometry" />
        </mxCell>
        <mxCell id="mhCpos3WRwanXN9Es1C8-10" value="Fahrzeug reservieren&lt;br&gt;extension points: Fahrzeugverfügbarkeit;&lt;br&gt;Führerscheinlegitmation" style="ellipse;whiteSpace=wrap;html=1;" vertex="1" parent="1">
          <mxGeometry x="570" y="-900" width="270" height="60" as="geometry" />
        </mxCell>
        <mxCell id="mhCpos3WRwanXN9Es1C8-11" value="Auf Warteliste setzen&lt;br&gt;extension Point: Fahrzeug doch verfügbar" style="ellipse;whiteSpace=wrap;html=1;" vertex="1" parent="1">
          <mxGeometry x="1040" y="-905" width="170" height="70" as="geometry" />
        </mxCell>
        <mxCell id="mhCpos3WRwanXN9Es1C8-12" value="Benachrichtigung senden" style="ellipse;whiteSpace=wrap;html=1;" vertex="1" parent="1">
          <mxGeometry x="640" y="-460" width="110" height="40" as="geometry" />
        </mxCell>
        <mxCell id="mhCpos3WRwanXN9Es1C8-14" value="" style="endArrow=none;html=1;rounded=0;entryX=0;entryY=0.5;entryDx=0;entryDy=0;exitX=0.591;exitY=0.264;exitDx=0;exitDy=0;exitPerimeter=0;" edge="1" parent="1" source="mhCpos3WRwanXN9Es1C8-2" target="mhCpos3WRwanXN9Es1C8-6">
          <mxGeometry width="50" height="50" relative="1" as="geometry">
            <mxPoint x="240" y="-1000" as="sourcePoint" />
            <mxPoint x="170" y="-1040" as="targetPoint" />
          </mxGeometry>
        </mxCell>
        <mxCell id="mhCpos3WRwanXN9Es1C8-15" value="" style="endArrow=none;html=1;rounded=0;entryX=0;entryY=0.5;entryDx=0;entryDy=0;exitX=0.5;exitY=0.5;exitDx=0;exitDy=0;exitPerimeter=0;" edge="1" parent="1" source="mhCpos3WRwanXN9Es1C8-2" target="mhCpos3WRwanXN9Es1C8-9">
          <mxGeometry width="50" height="50" relative="1" as="geometry">
            <mxPoint x="300" y="-950" as="sourcePoint" />
            <mxPoint x="320" y="-990" as="targetPoint" />
          </mxGeometry>
        </mxCell>
        <mxCell id="mhCpos3WRwanXN9Es1C8-16" value="&amp;lt;&amp;lt;include&amp;gt;&amp;gt;" style="endArrow=open;endSize=12;dashed=1;html=1;rounded=0;exitX=0.5;exitY=0;exitDx=0;exitDy=0;entryX=0.5;entryY=1;entryDx=0;entryDy=0;" edge="1" parent="1" source="mhCpos3WRwanXN9Es1C8-9" target="mhCpos3WRwanXN9Es1C8-6">
          <mxGeometry width="160" relative="1" as="geometry">
            <mxPoint x="340" y="-750" as="sourcePoint" />
            <mxPoint x="710" y="-1000" as="targetPoint" />
          </mxGeometry>
        </mxCell>
        <mxCell id="mhCpos3WRwanXN9Es1C8-17" value="" style="endArrow=none;html=1;rounded=0;" edge="1" parent="1" source="mhCpos3WRwanXN9Es1C8-2" target="mhCpos3WRwanXN9Es1C8-10">
          <mxGeometry width="50" height="50" relative="1" as="geometry">
            <mxPoint x="240" y="-972" as="sourcePoint" />
            <mxPoint x="610" y="-928" as="targetPoint" />
          </mxGeometry>
        </mxCell>
        <mxCell id="mhCpos3WRwanXN9Es1C8-18" value="&amp;lt;&amp;lt;extend&amp;gt;&amp;gt;&lt;br&gt;condition: Fahrzeug=0&lt;br&gt;extension point: &lt;br&gt;Fahrzeugverfügbarkeit" style="endArrow=open;endSize=12;dashed=1;html=1;rounded=0;exitX=0;exitY=0.5;exitDx=0;exitDy=0;entryX=1;entryY=0.5;entryDx=0;entryDy=0;" edge="1" parent="1" source="mhCpos3WRwanXN9Es1C8-11" target="mhCpos3WRwanXN9Es1C8-10">
          <mxGeometry width="160" relative="1" as="geometry">
            <mxPoint x="340" y="-850" as="sourcePoint" />
            <mxPoint x="500" y="-850" as="targetPoint" />
          </mxGeometry>
        </mxCell>
        <mxCell id="mhCpos3WRwanXN9Es1C8-21" value="Benachrichtigung per E-Mai/SMS" style="ellipse;whiteSpace=wrap;html=1;" vertex="1" parent="1">
          <mxGeometry x="1400" y="-890" width="200" height="40" as="geometry" />
        </mxCell>
        <mxCell id="mhCpos3WRwanXN9Es1C8-22" value="&amp;lt;&amp;lt;extend&amp;gt;&amp;gt;&lt;br&gt;condition: Fahrzeug ungleich 0&lt;br&gt;extension point: &lt;br&gt;Fahrzeug doch Verfügbar" style="endArrow=open;endSize=12;dashed=1;html=1;rounded=0;entryX=1;entryY=0.5;entryDx=0;entryDy=0;" edge="1" parent="1" source="mhCpos3WRwanXN9Es1C8-21" target="mhCpos3WRwanXN9Es1C8-11">
          <mxGeometry width="160" relative="1" as="geometry">
            <mxPoint x="1390" y="-880" as="sourcePoint" />
            <mxPoint x="1190" y="-880" as="targetPoint" />
          </mxGeometry>
        </mxCell>
        <mxCell id="mhCpos3WRwanXN9Es1C8-24" value="" style="endArrow=none;html=1;rounded=0;exitX=0.509;exitY=0.564;exitDx=0;exitDy=0;exitPerimeter=0;entryX=0;entryY=0.683;entryDx=0;entryDy=0;entryPerimeter=0;" edge="1" parent="1" source="mhCpos3WRwanXN9Es1C8-3" target="mhCpos3WRwanXN9Es1C8-10">
          <mxGeometry width="50" height="50" relative="1" as="geometry">
            <mxPoint x="660" y="-760" as="sourcePoint" />
            <mxPoint x="710" y="-810" as="targetPoint" />
          </mxGeometry>
        </mxCell>
        <mxCell id="mhCpos3WRwanXN9Es1C8-25" value="&amp;lt;&amp;lt;include&amp;gt;&amp;gt;" style="endArrow=open;endSize=12;dashed=1;html=1;rounded=0;exitX=0.467;exitY=0.983;exitDx=0;exitDy=0;entryX=0.6;entryY=0.075;entryDx=0;entryDy=0;entryPerimeter=0;exitPerimeter=0;" edge="1" parent="1" source="mhCpos3WRwanXN9Es1C8-10" target="mhCpos3WRwanXN9Es1C8-7">
          <mxGeometry width="160" relative="1" as="geometry">
            <mxPoint x="826" y="-750" as="sourcePoint" />
            <mxPoint x="826" y="-810" as="targetPoint" />
          </mxGeometry>
        </mxCell>
        <mxCell id="mhCpos3WRwanXN9Es1C8-26" value="" style="endArrow=none;html=1;rounded=0;entryX=0;entryY=1;entryDx=0;entryDy=0;" edge="1" parent="1" target="mhCpos3WRwanXN9Es1C8-7">
          <mxGeometry width="50" height="50" relative="1" as="geometry">
            <mxPoint x="250" y="-970" as="sourcePoint" />
            <mxPoint x="590" y="-870" as="targetPoint" />
          </mxGeometry>
        </mxCell>
        <mxCell id="mhCpos3WRwanXN9Es1C8-27" value="&amp;lt;&amp;lt;include&amp;gt;&amp;gt;" style="endArrow=open;endSize=12;dashed=1;html=1;rounded=0;exitX=0.5;exitY=1;exitDx=0;exitDy=0;entryX=0.5;entryY=0;entryDx=0;entryDy=0;" edge="1" parent="1" source="mhCpos3WRwanXN9Es1C8-7" target="mhCpos3WRwanXN9Es1C8-8">
          <mxGeometry width="160" relative="1" as="geometry">
            <mxPoint x="706" y="-831" as="sourcePoint" />
            <mxPoint x="706" y="-777" as="targetPoint" />
          </mxGeometry>
        </mxCell>
        <mxCell id="mhCpos3WRwanXN9Es1C8-28" value="Kostenstellenverantwortlicher" style="shape=umlActor;verticalLabelPosition=bottom;verticalAlign=top;html=1;" vertex="1" parent="1">
          <mxGeometry x="140" y="-670" width="110" height="140" as="geometry" />
        </mxCell>
        <mxCell id="mhCpos3WRwanXN9Es1C8-29" value="" style="endArrow=block;endFill=0;endSize=12;html=1;rounded=0;" edge="1" parent="1" source="mhCpos3WRwanXN9Es1C8-28" target="mhCpos3WRwanXN9Es1C8-1">
          <mxGeometry width="160" relative="1" as="geometry">
            <mxPoint x="180" y="-991" as="sourcePoint" />
            <mxPoint x="110" y="-980" as="targetPoint" />
          </mxGeometry>
        </mxCell>
        <mxCell id="mhCpos3WRwanXN9Es1C8-30" value="" style="endArrow=block;endFill=0;endSize=12;html=1;rounded=0;" edge="1" parent="1" source="mhCpos3WRwanXN9Es1C8-3" target="mhCpos3WRwanXN9Es1C8-1">
          <mxGeometry width="160" relative="1" as="geometry">
            <mxPoint x="190" y="-981" as="sourcePoint" />
            <mxPoint x="120" y="-970" as="targetPoint" />
          </mxGeometry>
        </mxCell>
        <mxCell id="mhCpos3WRwanXN9Es1C8-32" value="" style="endArrow=none;html=1;rounded=0;entryX=0;entryY=0.5;entryDx=0;entryDy=0;" edge="1" parent="1" target="mhCpos3WRwanXN9Es1C8-8">
          <mxGeometry width="50" height="50" relative="1" as="geometry">
            <mxPoint x="260" y="-610" as="sourcePoint" />
            <mxPoint x="580" y="-849" as="targetPoint" />
          </mxGeometry>
        </mxCell>
        <mxCell id="mhCpos3WRwanXN9Es1C8-33" value="&amp;lt;&amp;lt;extend&amp;gt;&amp;gt;&lt;br&gt;condition: Wenn Genehmigung verweigert&lt;br&gt;Genehmigungsprozess" style="endArrow=open;endSize=12;dashed=1;html=1;rounded=0;exitX=0.647;exitY=0.975;exitDx=0;exitDy=0;entryX=0.664;entryY=0.1;entryDx=0;entryDy=0;exitPerimeter=0;entryPerimeter=0;" edge="1" parent="1" source="mhCpos3WRwanXN9Es1C8-8" target="mhCpos3WRwanXN9Es1C8-12">
          <mxGeometry width="160" relative="1" as="geometry">
            <mxPoint x="850" y="-540" as="sourcePoint" />
            <mxPoint x="650" y="-540" as="targetPoint" />
          </mxGeometry>
        </mxCell>
        <mxCell id="mhCpos3WRwanXN9Es1C8-34" value="Reservierung stornieren" style="ellipse;whiteSpace=wrap;html=1;" vertex="1" parent="1">
          <mxGeometry x="1020" y="-560" width="110" height="40" as="geometry" />
        </mxCell>
        <mxCell id="mhCpos3WRwanXN9Es1C8-35" value="&amp;lt;&amp;lt;include&amp;gt;&amp;gt;" style="endArrow=open;endSize=12;dashed=1;html=1;rounded=0;exitX=0;exitY=0.5;exitDx=0;exitDy=0;" edge="1" parent="1" source="mhCpos3WRwanXN9Es1C8-34" target="mhCpos3WRwanXN9Es1C8-12">
          <mxGeometry width="160" relative="1" as="geometry">
            <mxPoint x="694.5" y="-360" as="sourcePoint" />
            <mxPoint x="694.5" y="-420" as="targetPoint" />
          </mxGeometry>
        </mxCell>
        <mxCell id="mhCpos3WRwanXN9Es1C8-36" value="" style="endArrow=none;html=1;rounded=0;entryX=0.9;entryY=0.964;entryDx=0;entryDy=0;entryPerimeter=0;exitX=0;exitY=0.25;exitDx=0;exitDy=0;exitPerimeter=0;" edge="1" parent="1" source="mhCpos3WRwanXN9Es1C8-34" target="mhCpos3WRwanXN9Es1C8-2">
          <mxGeometry width="50" height="50" relative="1" as="geometry">
            <mxPoint x="660" y="-790" as="sourcePoint" />
            <mxPoint x="710" y="-840" as="targetPoint" />
          </mxGeometry>
        </mxCell>
        <mxCell id="mhCpos3WRwanXN9Es1C8-38" value="&amp;lt;&amp;lt;include&amp;gt;&amp;gt;" style="endArrow=open;endSize=12;dashed=1;html=1;rounded=0;entryX=0.9;entryY=0.817;entryDx=0;entryDy=0;entryPerimeter=0;" edge="1" parent="1" source="mhCpos3WRwanXN9Es1C8-34" target="mhCpos3WRwanXN9Es1C8-10">
          <mxGeometry width="160" relative="1" as="geometry">
            <mxPoint x="695" y="-740" as="sourcePoint" />
            <mxPoint x="715" y="-670" as="targetPoint" />
          </mxGeometry>
        </mxCell>
        <mxCell id="mhCpos3WRwanXN9Es1C8-39" value="Kilometerstand bei Ausgabe erfassen" style="ellipse;whiteSpace=wrap;html=1;" vertex="1" parent="1">
          <mxGeometry x="630" y="-352" width="110" height="40" as="geometry" />
        </mxCell>
        <mxCell id="1MKDWBBOnj8OjpjPCOR2-1" value="" style="endArrow=none;html=1;rounded=0;" edge="1" parent="1" source="mhCpos3WRwanXN9Es1C8-39" target="mhCpos3WRwanXN9Es1C8-3">
          <mxGeometry width="50" height="50" relative="1" as="geometry">
            <mxPoint x="540" y="-550" as="sourcePoint" />
            <mxPoint x="240" y="-750" as="targetPoint" />
          </mxGeometry>
        </mxCell>
        <mxCell id="1MKDWBBOnj8OjpjPCOR2-2" value="Kosten berechnen und an EFS weiterleiten" style="ellipse;whiteSpace=wrap;html=1;" vertex="1" parent="1">
          <mxGeometry x="620" y="-180" width="152.5" height="70" as="geometry" />
        </mxCell>
        <mxCell id="1MKDWBBOnj8OjpjPCOR2-3" value="&amp;nbsp;Kilometerstand bei Rückgabe&amp;nbsp; erfassen" style="ellipse;whiteSpace=wrap;html=1;" vertex="1" parent="1">
          <mxGeometry x="625" y="-280" width="140" height="50" as="geometry" />
        </mxCell>
        <mxCell id="1MKDWBBOnj8OjpjPCOR2-4" value="" style="endArrow=none;html=1;rounded=0;" edge="1" parent="1" source="1MKDWBBOnj8OjpjPCOR2-3">
          <mxGeometry width="50" height="50" relative="1" as="geometry">
            <mxPoint x="665" y="-339" as="sourcePoint" />
            <mxPoint x="240" y="-740" as="targetPoint" />
          </mxGeometry>
        </mxCell>
        <mxCell id="1MKDWBBOnj8OjpjPCOR2-5" value="&amp;lt;&amp;lt;include&amp;gt;&amp;gt;" style="endArrow=open;endSize=12;dashed=1;html=1;rounded=0;entryX=0.45;entryY=1;entryDx=0;entryDy=0;entryPerimeter=0;" edge="1" parent="1" source="1MKDWBBOnj8OjpjPCOR2-2" target="1MKDWBBOnj8OjpjPCOR2-3">
          <mxGeometry width="160" relative="1" as="geometry">
            <mxPoint x="996" y="32" as="sourcePoint" />
            <mxPoint x="750" y="-260" as="targetPoint" />
          </mxGeometry>
        </mxCell>
        <mxCell id="1MKDWBBOnj8OjpjPCOR2-6" value="Externes Finanzbuchsystem (EFS)" style="rounded=0;whiteSpace=wrap;html=1;" vertex="1" parent="1">
          <mxGeometry x="1670" y="-200" width="180" height="100" as="geometry" />
        </mxCell>
        <mxCell id="1MKDWBBOnj8OjpjPCOR2-7" value="" style="endArrow=none;html=1;rounded=0;entryX=-0.017;entryY=0.57;entryDx=0;entryDy=0;entryPerimeter=0;" edge="1" parent="1" target="1MKDWBBOnj8OjpjPCOR2-6">
          <mxGeometry width="50" height="50" relative="1" as="geometry">
            <mxPoint x="772.5" y="-140" as="sourcePoint" />
            <mxPoint x="822.5" y="-190" as="targetPoint" />
          </mxGeometry>
        </mxCell>
        <mxCell id="1MKDWBBOnj8OjpjPCOR2-8" value="Datenändernungen vornehmen (Fahrzeuge und Kostenstellen" style="ellipse;whiteSpace=wrap;html=1;" vertex="1" parent="1">
          <mxGeometry x="560" y="-100" width="230" height="50" as="geometry" />
        </mxCell>
        <mxCell id="1MKDWBBOnj8OjpjPCOR2-9" value="" style="endArrow=none;html=1;rounded=0;" edge="1" parent="1" source="1MKDWBBOnj8OjpjPCOR2-8">
          <mxGeometry width="50" height="50" relative="1" as="geometry">
            <mxPoint x="530" y="-532" as="sourcePoint" />
            <mxPoint x="250" y="-740" as="targetPoint" />
          </mxGeometry>
        </mxCell>
        <mxCell id="1MKDWBBOnj8OjpjPCOR2-11" value="&amp;lt;&amp;lt;include&amp;gt;&amp;gt;" style="endArrow=open;endSize=12;dashed=1;html=1;rounded=0;entryX=0.936;entryY=0.825;entryDx=0;entryDy=0;entryPerimeter=0;exitX=0.796;exitY=0.1;exitDx=0;exitDy=0;exitPerimeter=0;" edge="1" parent="1" source="mhCpos3WRwanXN9Es1C8-10" target="mhCpos3WRwanXN9Es1C8-6">
          <mxGeometry width="160" relative="1" as="geometry">
            <mxPoint x="780" y="-940" as="sourcePoint" />
            <mxPoint x="780" y="-1000" as="targetPoint" />
          </mxGeometry>
        </mxCell>
        <mxCell id="1MKDWBBOnj8OjpjPCOR2-12" value="gültige Fahrerlaubnis prüfen" style="ellipse;whiteSpace=wrap;html=1;" vertex="1" parent="1">
          <mxGeometry x="1120" y="-720" width="170" height="70" as="geometry" />
        </mxCell>
        <mxCell id="1MKDWBBOnj8OjpjPCOR2-13" value="&amp;lt;&amp;lt;extend&amp;gt;&amp;gt;&lt;br&gt;condition: Führerschein wurde bei &lt;br&gt;Fuhrparkverantwortlichen nicht legitmiert&lt;br&gt;extension point: &lt;br&gt;Führerscheinlegitimation" style="endArrow=open;endSize=12;dashed=1;html=1;rounded=0;exitX=0;exitY=0.5;exitDx=0;exitDy=0;entryX=0.937;entryY=0.717;entryDx=0;entryDy=0;entryPerimeter=0;" edge="1" parent="1" source="1MKDWBBOnj8OjpjPCOR2-12" target="mhCpos3WRwanXN9Es1C8-10">
          <mxGeometry x="-0.0461" y="-3" width="160" relative="1" as="geometry">
            <mxPoint x="420" y="-765" as="sourcePoint" />
            <mxPoint x="920" y="-785" as="targetPoint" />
            <mxPoint as="offset" />
          </mxGeometry>
        </mxCell>
        <mxCell id="1MKDWBBOnj8OjpjPCOR2-14" value="" style="endArrow=none;html=1;rounded=0;" edge="1" parent="1" source="mhCpos3WRwanXN9Es1C8-3">
          <mxGeometry width="50" height="50" relative="1" as="geometry">
            <mxPoint x="1070" y="-640" as="sourcePoint" />
            <mxPoint x="1120" y="-690" as="targetPoint" />
          </mxGeometry>
        </mxCell>
        <mxCell id="TOeas-sUFRctNfHWV7-D-1" value="Julian Botlik - Industriewirtschaft" style="text;html=1;align=center;verticalAlign=middle;resizable=0;points=[];autosize=1;strokeColor=none;fillColor=none;" vertex="1" parent="1">
          <mxGeometry y="-1142" width="190" height="30" as="geometry" />
        </mxCell>
      </root>
    </mxGraphModel>
  </diagram>
</mxfile>
